<?xml version="1.0" encoding="UTF-8"?>
<svg version="1.1" xmlns="http://www.w3.org/2000/svg" width="1024" height="1024">
<path d="M0 0 C337.92 0 675.84 0 1024 0 C1024 337.92 1024 675.84 1024 1024 C686.08 1024 348.16 1024 0 1024 C0 686.08 0 348.16 0 0 Z " fill="#FDFDFD" transform="translate(0,0)"/>
<path d="M0 0 C60.25303616 -0.1209091 60.25303616 -0.1209091 85.54882812 -0.14648438 C91.32820664 -0.15235716 97.10758491 -0.15841837 102.88696289 -0.16479492 C103.61122036 -0.16558617 104.33547783 -0.16637741 105.0816825 -0.16719264 C116.74351763 -0.18020733 128.40530796 -0.20384027 140.06711661 -0.23145839 C152.05323744 -0.25960584 164.03933496 -0.2761959 176.02548748 -0.28226548 C182.75036462 -0.28599688 189.47513431 -0.295279 196.19997978 -0.31719017 C202.54056347 -0.3376803 208.881005 -0.34380861 215.22161865 -0.33932304 C217.53818092 -0.34014267 219.85474836 -0.34603309 222.17128181 -0.35761642 C249.02918338 -0.48523061 275.54543062 3.37855726 295.78125 22.88671875 C297.97168507 25.05278446 297.97168507 25.05278446 300.50390625 26.89453125 C314.58441197 38.77151495 321.00641576 59.3235531 323 77 C324.08550349 96.58811308 321.91078506 113.45845456 313 131 C312.32324219 132.36898437 312.32324219 132.36898437 311.6328125 133.765625 C302.47945678 150.55580413 286.47202952 162.12269356 268.41015625 167.81640625 C261.67358469 169.37771862 254.87830924 169.19405888 248 169 C248 169.66 248 170.32 248 171 C248.70382812 171.22300781 249.40765625 171.44601562 250.1328125 171.67578125 C253.62726881 173.28970589 253.62726881 173.28970589 253.62726881 173.28970589 C256.12591738 175.56035427 258.875 178.1875 C259.40456299 178.68507813 259.93412598 179.18265625 260.47973633 179.6953125 C261.99347836 181.1230649 263.49728221 182.56066573 265 184 C265.66644531 184.62519531 266.33289063 185.25039063 267.01953125 185.89453125 C271.3167352 190.03071584 275.00885632 194.60067773 278.74609375 199.2421875 C280.7733178 201.72263842 282.85552494 204.1210396 285 206.5 C289.5127233 211.52309082 293.75663908 216.74911665 298 222 C298.77472656 222.94101562 299.54945313 223.88203125 300.34765625 224.8515625 C301.07855469 225.74617187 301.80945313 226.64078125 302.5625 227.5625 C303.22378906 228.36816406 303.88507813 229.17382812 304.56640625 230.00390625 C306 232 306 232 306 234 C311.7268257 231.03657143 316.06032089 227.46375704 320.6875 223 C321.33783203 222.38382813 321.98816406 221.76765625 322.65820312 221.1328125 C325.81653938 218.13223208 328.93877012 215.09997963 332 212 C328.73854987 206.864433 325.01564711 202.23375465 321.125 197.5625 C320.22587891 196.47485352 320.22587891 196.47485352 319.30859375 195.36523438 C315.58482311 190.87005355 311.81028539 186.42202846 308 182 C309.5155542 178.78632963 310.93196268 176.95581068 313.6875 174.6875 C314.40550781 174.07261719 315.12351562 173.45773437 315.86328125 172.82421875 C316.56839844 172.22222656 317.27351563 171.62023437 318 171 C325.20771206 164.83358269 330.05976317 156.99998368 335 149 C335.37334473 148.40155273 335.74668945 147.80310547 336.13134766 147.18652344 C347.86064988 128.02990546 351.40745178 105.79968161 351.3125 83.625 C351.31067719 82.94612732 351.30885437 82.26725464 351.30697632 81.56781006 C351.26101156 71.38219874 350.70286872 61.87418975 348 52 C347.65585387 50.61207733 347.3121223 49.22405182 346.96875 47.8359375 C343.03756082 32.69256587 335.96409756 18.17939826 326.30078125 5.828125 C325 4 325 4 325 2 C350.08 2 375.16 2 401 2 C401.06624666 31.79265251 401.12159658 61.58526416 401.15319599 91.37797052 C401.15694771 94.9023711 401.16083072 98.42677153 401.16479492 101.95117188 C401.16558185 102.65275999 401.16636878 103.35434811 401.16717956 104.07719648 C401.18020189 115.40869928 401.20383806 126.740156 401.23145839 138.07163155 C401.25960123 149.71535469 401.27597067 161.35905111 401.28226548 173.00280666 C401.28616513 179.53594411 401.29528486 186.06897736 401.31719017 192.6020813 C401.33767289 198.76127152 401.34381009 204.9203154 401.33932304 211.07953644 C401.34014299 213.33040413 401.3460379 215.58127712 401.35761642 217.83211517 C401.41847186 230.2812595 400.90213206 241.85901626 398 254 C397.75796435 255.05777145 397.51592871 256.11554291 397.26655865 257.20536804 C396.67054556 259.77198342 396.03216056 262.32343214 395.375 264.875 C395.1584375 265.73996094 394.941875 266.60492188 394.71875 267.49609375 C393.14174107 273.71651786 393.14174107 273.71651786 392 276 C428.63 276 465.26 276 503 276 C497.59644427 300.31600081 488.38860848 324.42027459 470 342 C469.33246452 342.64963243 468.66492905 343.29926485 467.97716522 343.96858311 C461.33634462 349.91041308 456.6909875 351.12983421 447.91601562 350.85717773 C446.75043625 350.85364288 445.58485687 350.85010803 444.38395691 350.84646606 C441.86903662 350.8339359 439.35415342 350.80317639 436.83964539 350.75594902 C432.85360912 350.68262541 428.86898732 350.65940478 424.88244629 350.65187073 C414.9858802 350.62326584 405.09055866 350.50623206 395.19476318 350.38476562 C387.4921179 350.38476562 379.79042104 350.22047638 372.08716917 350.20953327 C367.49807916 350.2001847 362.91294794 350.12241104 358.3248291 350.0330658 C355.9112231 350.02380099 353.49760534 350.01711891 351.08398438 350.01342773 C350.00420822 349.97785263 348.92443207 349.94227753 347.81193542 349.90562439 C341.52933479 349.96258884 338.27912001 351.0606506 333.55334473 355.29994202 C332.02705436 356.8583398 330.50908405 358.42493452 329 360 C313.5755231 373.43841029 296.78047687 384.93676583 279 395 C278.02708008 395.556875 277.05416016 396.11375 276.05175781 396.6875 C259.21547294 406.26851699 242.04211776 414.02471173 224 421 C222.99565918 421.4031543 221.99131836 421.80630859 220.95654297 422.22167969 C211.16335351 426.02819618 204.75647582 424.98386431 195 421.625 C193.9476416 421.26631836 192.8952832 420.90763672 191.81103516 420.53808594 C162.9787045 410.49560575 136.51227694 395.88896653 111.5 378.5 C110.37597778 377.72462891 110.37597778 377.72462891 109.22924805 376.93359375 C108.54515869 376.45019531 107.86106934 375.96679688 107.15625 375.46875 C106.54587891 375.04013672 105.93550781 374.61152344 105.30664062 374.16992188 C104.87544922 373.78384766 104.44425781 373.39777344 104 373 C104 372.34 104 371.68 104 371 C105.60488281 370.92265625 105.60488281 370.92265625 107.2421875 370.84375 C138.58268037 368.7460068 168.07300629 355.1254104 189.15234375 331.59765625 C197.604849 321.32810573 204.69932544 309.88815529 208.9296875 297.21484375 C210 295 210 295 211.70703125 293.99609375 C212.74923828 293.71958984 212.74923828 293.71958984 213.8125 293.4375 C215.03453125 293.08558594 215.03453125 293.08558594 216.28125 292.7265625 C217.1784375 292.48679687 218.075625 292.24703125 219 292 C227.92542711 289.46778613 236.43914319 286.33023895 245.02075195 282.81762695 C249.30967052 281.06255021 253.57623347 279.39546456 258 278 C258 277.34 258 276.68 258 276 C249.00452743 278.03123574 240.23991075 280.70905697 231.45092773 283.48657227 C225.35080914 285.38652399 219.29196116 286.8854584 213 288 C213.91853234 279.47077114 213.91853234 279.47077114 214.51171875 276.04296875 C217.97980807 251.76634354 214.27320902 227.68315428 203 206 C202.51321777 205.06148193 202.51321777 205.06148193 202.01660156 204.10400391 C187.75548033 177.28674543 163.73184204 158.50529673 134.94970703 149.34765625 C130.66872824 148.07366694 126.35808236 146.98138247 122 146 C121.23816406 145.82194824 120.47632813 145.64389648 119.69140625 145.46044922 C113.69230788 144.13994456 108.00934709 143.68241185 101.875 143.75 C100.96339111 143.75749268 100.05178223 143.76498535 99.11254883 143.77270508 C71.94706967 144.19846646 47.25178695 153.05820555 26 170 C25.13375 170.67160156 24.2675 171.34320313 23.375 172.03515625 C15.77637081 178.35516995 10.1565381 186.29905224 4.37524414 194.24169922 C3 196 3 196 0 199 C0 133.33 0 67.66 0 0 Z " fill="#0F447F" transform="translate(309,190)"/>
<path d="M0 0 C25.08 0 50.16 0 76 0 C76.06624666 29.79265251 76.12159658 59.58526416 76.15319599 89.37797052 C76.15694771 92.9023711 76.16083072 96.42677153 76.16479492 99.95117188 C76.16558185 100.65275999 76.16636878 101.35434811 76.16717956 102.07719648 C76.18020189 113.40869928 76.20383806 124.740156 76.23145839 136.07163155 C76.25960123 147.71535469 76.27597067 159.35905111 76.28226548 171.00280666 C76.28616513 177.53594411 76.29528486 184.06897736 76.31719017 190.6020813 C76.33767289 196.76127152 76.34381009 202.9203154 76.33932304 209.07953644 C76.34014299 211.33040413 76.3460379 213.58127712 76.35761642 215.83211517 C76.41847186 228.2812595 75.90213206 239.85901626 73 252 C72.75796435 253.05777145 72.51592871 254.11554291 72.26655865 255.20536804 C71.67054556 257.77198342 71.03216056 260.32343214 70.375 262.875 C70.1584375 263.73996094 69.941875 264.60492188 69.71875 265.49609375 C68.14174107 271.71651786 68.14174107 271.71651786 67 274 C103.63 274 140.26 274 178 274 C172.59644427 298.31600081 163.38860848 322.42027459 145 340 C144.33246452 340.64963243 143.66492905 341.29926485 142.97716522 341.96858311 C136.33634462 347.91041308 131.6909875 349.12983421 122.91601562 348.85717773 C121.75043625 348.85364288 120.58485687 348.85010803 119.38395691 348.84646606 C116.86903662 348.8339359 114.35415342 348.80317639 111.83964539 348.75594902 C107.85360912 348.68262541 103.86898732 348.65940478 99.88244629 348.65187073 C89.9858802 348.62326584 80.09055866 348.50623206 70.19476318 348.38476562 C62.4921179 348.29161572 54.79042104 348.22047638 47.08716917 348.20953327 C42.49807916 348.2001847 37.91294794 348.12241104 33.3248291 348.0330658 C30.9112231 348.02380099 28.49760534 348.01711891 26.08398438 348.01342773 C25.00420822 347.97785263 23.92443207 347.94227753 22.81193542 347.90562439 C16.52933479 347.96258884 13.27912001 349.0606506 8.55334473 353.29994202 C7.02705436 354.8583398 5.50908405 356.42493452 4 358 C-11.4244769 371.43841029 -28.21952313 382.93676583 -46 393 C-47.45937988 393.8353125 -47.45937988 393.8353125 -48.94824219 394.6875 C-65.78452706 404.26851699 -82.95788224 412.02471173 -101 419 C-102.00434082 419.4031543 -103.00868164 419.80630859 -104.04345703 420.22167969 C-113.83664649 424.02819618 -120.24352418 422.98386431 -130 419.625 C-131.0523584 419.26631836 -132.1047168 418.90763672 -133.18896484 418.53808594 C-162.0212955 408.49560575 -188.48772306 393.88896653 -213.5 376.5 C-214.62402222 375.72462891 -214.62402222 375.72462891 -215.77075195 374.93359375 C-216.45484131 374.45019531 -217.13893066 373.96679688 -217.84375 373.46875 C-218.45412109 373.04013672 -219.06449219 372.61152344 -219.69335938 372.16992188 C-220.12455078 371.78384766 -220.55574219 371.39777344 -221 371 C-221 370.34 -221 369.68 -221 369 C-219.39511719 368.92265625 -219.39511719 368.92265625 -217.7578125 368.84375 C-186.41731963 366.7460068 -156.92699371 353.1254104 -135.84765625 329.59765625 C-127.395151 319.32810573 -120.30067456 307.88815529 -116.0703125 295.21484375 C-115 293 -115 293 -113.29296875 291.99609375 C-112.59816406 291.81175781 -111.90335938 291.62742187 -111.1875 291.4375 C-110.3728125 291.20289063 -109.558125 290.96828125 -108.71875 290.7265625 C-107.8215625 290.48679687 -106.924375 290.24703125 -106 290 C-97.07457289 287.46778613 -88.56085681 284.33023895 -79.97924805 280.81762695 C-75.69032948 279.06255021 -71.42376653 277.39546456 -67 276 C-67 275.34 -67 274.68 -67 274 C-67.99 273.67 -68.98 273.34 -70 273 C-69.16082031 272.69449219 -68.32164062 272.38898438 -67.45703125 272.07421875 C-52.37762354 266.33660917 -37.45956503 259.35515202 -24.80859375 249.234375 C-22.2326369 247.18507414 -19.60673295 245.29689888 -16.90405273 243.4230957 C-8.81734139 237.80667658 -1.28039729 231.62587882 6 225 C6.58523438 224.48759766 7.17046875 223.97519531 7.7734375 223.44726562 C9.68773561 221.7461012 9.68773561 221.7461012 12 219 C11.59042911 216.04402806 10.50617282 213.56935363 9 211 C8.34 210.67 7.68 210.34 7 210 C6.07396587 208.61521624 5.15178178 207.22770551 4.24902344 205.82763672 C1.78342103 202.21983773 -1.08065072 198.91749897 -3.875 195.5625 C-4.47441406 194.83740234 -5.07382812 194.11230469 -5.69140625 193.36523438 C-9.41517689 188.87005355 -13.18971461 184.42202846 -17 180 C-15.4844458 176.78632963 -14.06803732 174.95581068 -11.3125 172.6875 C-10.59449219 172.07261719 -9.87648438 171.45773437 -9.13671875 170.82421875 C-8.43160156 170.22222656 -7.72648438 169.62023437 -7 169 C0.20771206 162.83358269 5.05976317 154.99998368 10 147 C10.37334473 146.40155273 10.74668945 145.80310547 11.13134766 145.18652344 C22.86064988 126.02990546 26.40745178 103.79968161 26.3125 81.625 C26.31067719 80.94612732 26.30885437 80.26725464 26.30697632 79.56781006 C26.26101156 69.38219874 25.70286872 59.87418975 23 50 C22.65585387 48.61207733 22.3121223 47.22405182 21.96875 45.8359375 C18.03756082 30.69256587 10.96409756 16.17939826 1.30078125 3.828125 C0 2 0 2 0 0 Z " fill="#1774C5" transform="translate(634,192)"/>
<path d="M0 0 C14.83386738 12.26004403 26.98613141 28.53388587 33 47 C33.37125 48.0725 33.7425 49.145 34.125 50.25 C40.50227982 77.58119923 38.46911238 105.90032736 23.58203125 130.1015625 C20.12493701 135.43905753 16.31668165 140.31964188 12 145 C11.06800781 146.051875 11.06800781 146.051875 10.1171875 147.125 C0.89597576 157.00211383 -10.85680997 163.43316942 -23 169 C-24.67642578 169.77150391 -24.67642578 169.77150391 -26.38671875 170.55859375 C-48.55819207 179.40321392 -74.4690134 178.51678873 -96.36035156 169.51757812 C-102.60912375 166.83239816 -108.3980408 163.78738748 -113.984375 159.87109375 C-115.97911715 158.75205727 -115.97911715 158.75205727 -118.0625 159.62109375 C-120.15345997 161.10921647 -121.63052239 162.6374593 -123.25 164.625 C-123.77078125 165.25664063 -124.2915625 165.88828125 -124.828125 166.5390625 C-125.40820312 167.26222656 -125.40820312 167.26222656 -126 168 C-125.67 168.598125 -125.34 169.19625 -125 169.8125 C-124 172 -124 172 -124 175 C-125.85725515 177.16031275 -127.73045388 179.15000895 -129.74804688 181.15209961 C-130.66511414 182.07946175 -130.66511414 182.07946175 -131.60070801 183.02555847 C-133.63239062 185.07560119 -135.67503529 187.11430052 -137.71875 189.15234375 C-139.13484897 190.57300245 -140.55057478 191.9940332 -141.96594238 193.41542053 C-144.94036894 196.39879806 -147.92043551 199.37640171 -150.90429688 202.3503418 C-154.71808262 206.15267808 -158.51586037 209.97055596 -162.30925751 213.79321957 C-165.23282352 216.73518814 -168.16570642 219.66772913 -171.10133362 222.59765816 C-172.5045576 224.0007292 -173.9046979 225.40689155 -175.30162048 226.8162365 C-177.26385467 228.79344175 -179.23854453 230.75734421 -181.21679688 232.71850586 C-181.78648193 233.29785889 -182.35616699 233.87721191 -182.94311523 234.47412109 C-188.54698134 239.97769809 -194.46421853 243.57244527 -202.5 243.5625 C-209.49938453 243.32756695 -213.63657776 241.3720464 -218.5234375 236.47265625 C-222.79615553 231.61954011 -224.29991082 228.06765146 -224.375 221.625 C-224.40335938 220.52414062 -224.43171875 219.42328125 -224.4609375 218.2890625 C-223.51043485 211.50666225 -218.25701354 206.97327956 -213.57910156 202.35205078 C-212.62725227 201.39976341 -212.62725227 201.39976341 -211.65617371 200.42823792 C-209.57236634 198.34581599 -207.48158065 196.27055463 -205.390625 194.1953125 C-203.93858916 192.74700957 -202.48699631 191.29826238 -201.03582764 189.84909058 C-197.22623164 186.04710904 -193.41066651 182.25117367 -189.59381104 178.45648193 C-185.69562411 174.57880056 -181.80313456 170.69540928 -177.91015625 166.8125 C-170.27899101 159.20274608 -162.64150518 151.59936979 -155 144 C-154.401875 144.309375 -153.80375 144.61875 -153.1875 144.9375 C-150.91043228 146.10209704 -150.91043228 146.10209704 -148 147 C-147.236875 146.236875 -146.47375 145.47375 -145.6875 144.6875 C-143.79166667 142.79166667 -141.89583333 140.89583333 -140 139 C-141.4997545 134.89097873 -143.51152506 131.31498222 -145.75 127.5625 C-159.15047112 104.52480837 -164.56088755 76.96547394 -157.77026367 50.78442383 C-153.63239824 36.15594618 -146.76053885 23.57829102 -137 12 C-136.04867187 10.75476563 -136.04867187 10.75476563 -135.078125 9.484375 C-131.31619117 4.98702554 -126.61201521 1.58574909 -122 -2 C-121.20335937 -2.62390625 -120.40671875 -3.2478125 -119.5859375 -3.890625 C-108.99955082 -11.75075157 -96.70524027 -16.72494454 -84 -20 C-83.16984375 -20.22558594 -82.3396875 -20.45117188 -81.484375 -20.68359375 C-53.41527251 -27.08299605 -22.04451671 -17.8527413 0 0 Z " fill="#072B59" transform="translate(470,371)"/>
<path d="M0 0 C1.52620972 0.00737183 1.52620972 0.00737183 3.08325195 0.01489258 C10.32648653 0.12796845 16.85145046 0.77835907 23.6875 3.3125 C24.66332031 3.6528125 25.63914062 3.993125 26.64453125 4.34375 C47.45894231 12.25269181 60.97371296 27.25874029 70.5 46.875 C78.05689321 64.69497116 77.94785188 84.368346 70.89013672 102.34326172 C62.42226518 122.55209832 47.84719757 135.83958363 27.6875 144.3125 C23.72336359 145.57528791 19.77538033 146.54895913 15.6875 147.3125 C14.76195312 147.49554687 13.83640625 147.67859375 12.8828125 147.8671875 C1.77298182 149.41550131 -9.68892125 149.00248253 -20.3125 145.3125 C-21.29476562 144.9721875 -22.27703125 144.631875 -23.2890625 144.28125 C-40.92233479 137.53777636 -57.21877129 123.87535723 -65.14355469 106.48925781 C-67.02939229 102.15552053 -68.74047156 97.77063639 -70.3125 93.3125 C-70.69148438 92.26964844 -71.07046875 91.22679687 -71.4609375 90.15234375 C-72.68517877 84.63202646 -72.64111186 79.26232618 -72.625 73.625 C-72.64111328 72.51705078 -72.65722656 71.40910156 -72.67382812 70.26757812 C-72.68377486 53.24871921 -66.69448449 37.98736711 -55.3125 25.3125 C-54.58417969 24.49136719 -53.85585938 23.67023438 -53.10546875 22.82421875 C-38.99210566 7.79884512 -20.43320614 -0.11658738 0 0 Z " fill="#FAFBFC" transform="translate(407.3125,373.6875)"/>
<path d="M0 0 C21.43647033 -0.1130322 42.87269797 -0.20506845 64.30939102 -0.25906086 C74.26366117 -0.28480101 84.2177325 -0.31987118 94.171875 -0.37719727 C102.85174058 -0.42716078 111.5314621 -0.45932144 120.2114675 -0.47044247 C124.80406522 -0.47693938 129.39625095 -0.49212082 133.98871613 -0.52865028 C138.31931888 -0.56281483 142.64934347 -0.57301211 146.98006821 -0.56553841 C148.56181617 -0.56690388 150.14358527 -0.57671405 151.72521591 -0.59602737 C163.03870528 -0.72729574 173.29885829 0.44276587 182.0625 8.375 C187.06507164 14.06084972 188.64645195 19.6769773 188.41015625 27.15625 C187.48823157 33.54826109 184.49252368 38.9500487 179.8125 43.375 C170.08431542 50.43417329 160.6063539 50.56817631 149.00863266 50.51642036 C146.11929384 50.50363909 143.23089 50.51522418 140.34158325 50.53245544 C134.18601161 50.5644831 128.03063864 50.56418767 121.875 50.5625 C113.8097849 50.56536814 105.74477657 50.58229191 97.6796875 50.62890625 C96.70950935 50.63448359 95.73933121 50.64006092 94.73975372 50.64580727 C80.28812907 50.75040661 66.26226277 51.49224945 52 54 C50.75976074 54.19327881 49.51952148 54.38655762 48.24169922 54.58569336 C45.31151885 55.0600929 42.40869084 55.59687634 39.5 56.1875 C38.49372559 56.38891602 37.48745117 56.59033203 36.45068359 56.79785156 C25.73785882 59.06911008 15.44219668 62.53674804 5.14697266 66.23144531 C3.43899336 66.84285296 1.72102043 67.42632652 0 68 C0 45.56 0 23.12 0 0 Z " fill="#FCFDFD" transform="translate(379,255)"/>
<path d="M0 0 C0.495 1.485 0.495 1.485 1 3 C-3.38442736 5.67996782 -7.80081584 5.33327688 -12.80859375 5.4609375 C-16.61653239 6.10413889 -18.26896383 7.31808318 -21 10 C-23.12559657 14.4536309 -23.96979937 19.13383854 -23 24 C-20.27610855 30.34928434 -16.50695532 36.17547984 -10 39 C-5.81946921 40.07931087 -2.27215633 40.29773872 1.9375 39.3125 C4.41231339 37.73761875 4.92273422 36.70028296 6 34 C6.64429579 28.25818749 6.01289295 23.40964979 4 18 C3.6875 15.25 3.6875 15.25 4 13 C7.48931528 10.67378982 8.89458937 10.3992082 13 11 C15.01171875 13.1953125 15.01171875 13.1953125 16.6875 16.125 C17.56535156 17.64480469 17.56535156 17.64480469 18.4609375 19.1953125 C18.96882813 20.12085938 19.47671875 21.04640625 20 22 C20.598125 22.99 21.19625 23.98 21.8125 25 C26.91506374 37.89068735 26.80910964 52.55597443 21.69067383 65.33276367 C15.00506443 80.65624885 4.27541662 89.83993878 -11 96 C-11.73734375 96.34160156 -12.4746875 96.68320312 -13.234375 97.03515625 C-23.50454722 101.31439467 -36.69799916 99.95740455 -46.93359375 96.33203125 C-63.50249999 89.13458281 -74.13384563 78.48838989 -80.90625 61.76171875 C-84.69056301 50.49637956 -85.14404336 35.34207628 -80.265625 24.3828125 C-79.84796875 23.59648437 -79.4303125 22.81015625 -79 22 C-78.54109375 21.13117188 -78.0821875 20.26234375 -77.609375 19.3671875 C-70.76269857 7.29541589 -61.67384081 -0.33539395 -49 -6 C-48.175 -6.391875 -47.35 -6.78375 -46.5 -7.1875 C-30.85849699 -12.27098848 -13.35243946 -9.30551134 0 0 Z " fill="#1980D0" transform="translate(438,403)"/>
<path d="M0 0 C8.53875 -0.04125 17.0775 -0.0825 25.875 -0.125 C28.55093262 -0.14320801 31.22686523 -0.16141602 33.98388672 -0.18017578 C36.13248495 -0.18602338 38.28108541 -0.19111831 40.4296875 -0.1953125 C41.52289307 -0.20554443 42.61609863 -0.21577637 43.74243164 -0.22631836 C56.71618848 -0.22923578 67.67563627 2.51308727 78.375 10.1875 C87.09621807 19.53166222 88.49528715 29.50094754 88.2734375 41.7578125 C87.90244729 50.09223609 84.58822804 56.20784399 78.94921875 62.23828125 C75.91420819 64.98134691 72.59028534 67.06031338 69 69 C70.31310772 71.75844074 71.77058503 74.23329338 73.5390625 76.72265625 C74.03374023 77.42124756 74.52841797 78.11983887 75.03808594 78.83959961 C75.56176758 79.57315674 76.08544922 80.30671387 76.625 81.0625 C77.42599121 82.1928064 77.42599121 82.1928064 78.24316406 83.34594727 C81.98455617 88.61438079 85.79094723 93.82941145 89.671875 98.99609375 C91 101 91 101 91 103 C68.88320129 104.7808008 68.88320129 104.7808008 62.9453125 101.11328125 C60.90864222 98.18939194 59.50370945 95.23099201 58 92 C56.11025784 89.10271851 54.08009226 86.30919264 52.0625 83.5 C51.10938898 82.13994624 50.16233395 80.77561944 49.22265625 79.40625 C48.81797119 78.82166016 48.41328613 78.23707031 47.99633789 77.63476562 C47 76 47 76 46 73 C38.41 73 30.82 73 23 73 C23.01160156 75.08183594 23.02320313 77.16367187 23.03515625 79.30859375 C23.04210735 81.31746298 23.04902389 83.32633251 23.05493164 85.33520508 C23.0599708 86.73495228 23.06680216 88.1346942 23.07543945 89.53442383 C23.0875232 91.54245777 23.09269807 93.55052957 23.09765625 95.55859375 C23.10551147 97.37315063 23.10551147 97.37315063 23.11352539 99.22436523 C23 102 23 102 22 103 C14.74 103 7.48 103 0 103 C0 69.01 0 35.02 0 0 Z " fill="#042650" transform="translate(195,656)"/>
<path d="M0 0 C0.70769531 0.25523437 1.41539062 0.51046875 2.14453125 0.7734375 C11.90325331 4.96949551 18.11750446 13.39775655 22 23 C24.21610269 29.64830806 23 36.99206799 23 44 C4.19 44 -14.62 44 -34 44 C-31.51301124 50.52784478 -31.51301124 50.52784478 -27 54.375 C-25.9790625 55.09816406 -25.9790625 55.09816406 -24.9375 55.8359375 C-18.85645023 59.48947143 -10.29829175 58.70256578 -3.5625 57.25 C0.04471701 55.98430982 2.12914976 54.46072878 5 52 C8 52 8 52 9.71875 53.64453125 C10.60046875 54.71767578 10.60046875 54.71767578 11.5 55.8125 C13.58277276 58.32004878 15.65488525 60.73353239 18 63 C16.50482929 67.48551214 12.98485014 69.81782016 9 72 C5.71828875 73.24214305 2.41195929 74.18815117 -1 75 C-1.76957031 75.185625 -2.53914062 75.37125 -3.33203125 75.5625 C-17.19851705 77.83636004 -30.86372447 75.96317136 -42.5234375 67.94921875 C-50.40882487 61.74289651 -55.45666093 53.99564465 -57 44 C-57.86450009 30.93329378 -56.65664232 20.3992191 -47.91015625 10 C-35.13212373 -3.37904428 -17.10628744 -6.17652451 0 0 Z " fill="#208BD7" transform="translate(623,684)"/>
<path d="M0 0 C6.4615248 5.79351002 9.6974244 13.99473364 10.25224304 22.54733276 C10.30846659 25.63377701 10.30309835 28.71396985 10.2734375 31.80078125 C10.2706076 32.92145996 10.26777771 34.04213867 10.26486206 35.19677734 C10.25372751 38.75239036 10.22863514 42.30774523 10.203125 45.86328125 C10.19308652 48.28385051 10.18396219 50.70442375 10.17578125 53.125 C10.15551758 59.03793827 10.11635533 64.95032307 10.078125 70.86328125 C2.488125 70.86328125 -5.101875 70.86328125 -12.921875 70.86328125 C-12.94765625 67.39570312 -12.9734375 63.928125 -13 60.35546875 C-13.03843492 56.98950147 -13.08359069 53.62368662 -13.12939453 50.2578125 C-13.15758429 47.9222748 -13.1788087 45.58664205 -13.19287109 43.25097656 C-13.21432746 39.88947966 -13.26099406 36.52912318 -13.3125 33.16796875 C-13.31372864 32.12712128 -13.31495728 31.0862738 -13.31622314 30.0138855 C-13.43683568 24.01609133 -13.88606954 20.41448481 -17.921875 15.86328125 C-23.36556013 12.72931277 -29.84473344 13.2509748 -35.921875 13.86328125 C-40.87193663 16.1212041 -43.3133547 19.12929997 -45.921875 23.86328125 C-47.26794723 28.6589792 -47.14573531 33.59464459 -47.23828125 38.5390625 C-47.25906235 39.46422165 -47.27984344 40.3893808 -47.30125427 41.34257507 C-47.3664406 44.28690432 -47.42549058 47.2313199 -47.484375 50.17578125 C-47.52758964 52.17644108 -47.57120486 54.17709231 -47.61523438 56.17773438 C-47.7228412 61.07282961 -47.82214439 65.96799389 -47.921875 70.86328125 C-55.181875 70.86328125 -62.441875 70.86328125 -69.921875 70.86328125 C-69.921875 45.78328125 -69.921875 20.70328125 -69.921875 -5.13671875 C-62.661875 -5.13671875 -55.401875 -5.13671875 -47.921875 -5.13671875 C-47.591875 -2.49671875 -47.261875 0.14328125 -46.921875 2.86328125 C-46.39980469 2.39277344 -45.87773438 1.92226563 -45.33984375 1.4375 C-31.83936013 -9.98234866 -14.32192651 -10.09044822 0 0 Z " fill="#1D89D6" transform="translate(727.921875,688.13671875)"/>
<path d="M0 0 C7.59 0 15.18 0 23 0 C23 28.05 23 56.1 23 85 C38.51 85 54.02 85 70 85 C70 91.27 70 97.54 70 104 C46.9 104 23.8 104 0 104 C0 69.68 0 35.36 0 0 Z " fill="#1D87D4" transform="translate(495,655)"/>
<path d="M0 0 C0.99 0.99 1.98 1.98 3 3 C0.69 7.62 -1.62 12.24 -4 17 C-10 15 -10 15 -12.2109375 14.1484375 C-17.6201681 12.21517458 -22.67949736 11.68299901 -28.375 11.625 C-29.41019775 11.60445557 -29.41019775 11.60445557 -30.46630859 11.58349609 C-33.55240066 11.61144846 -35.71817411 11.84603122 -38.4453125 13.3359375 C-40.28365281 14.99600805 -40.28365281 14.99600805 -40.5 18 C-40.30371227 21.03652 -40.30371227 21.03652 -38.29931641 22.61181641 C-35.71253982 24.1735505 -33.68089802 24.68866098 -30.7109375 25.2109375 C-29.17373047 25.50097656 -29.17373047 25.50097656 -27.60546875 25.796875 C-25.47588494 26.17798553 -23.3456849 26.55567088 -21.21484375 26.9296875 C-10.8220178 28.90185922 -2.14342951 32.00021581 4 41 C6.2275263 45.4550526 5.67925079 51.598071 4.3515625 56.29296875 C1.14455716 63.37853183 -4.83288522 68.18936675 -12 71 C-18.97867909 72.81074964 -25.74843831 73.35522098 -32.9375 73.3125 C-33.90389404 73.30831055 -34.87028809 73.30412109 -35.8659668 73.29980469 C-46.30851826 73.1340639 -54.65733751 70.54445558 -64 66 C-63.37183502 62.05050296 -62.1354471 58.80107972 -60.4375 55.1875 C-59.98246094 54.21167969 -59.52742187 53.23585938 -59.05859375 52.23046875 C-58.70925781 51.49441406 -58.35992188 50.75835938 -58 50 C-55.19458842 51.10878277 -52.43671375 52.25507302 -49.6875 53.5 C-40.89728493 57.0756807 -32.48607746 57.96100785 -23 57 C-19.63474656 55.60085973 -19.63474656 55.60085973 -17 54 C-17 52.02 -17 50.04 -17 48 C-23.49149761 44.12531717 -30.71207491 43.32102071 -38.05859375 41.98242188 C-45.71846374 40.50125803 -53.37263735 38.85107962 -58.4375 32.4375 C-58.91058594 31.85871094 -59.38367188 31.27992188 -59.87109375 30.68359375 C-63.44402768 25.35510058 -62.67677977 18.09101795 -62 12 C-58.94901473 3.91838253 -52.10837518 -0.68887862 -44.49609375 -4.1328125 C-30.60234835 -7.57908231 -12.81886421 -6.68237415 0 0 Z " fill="#1F8AD7" transform="translate(814,687)"/>
<path d="M0 0 C-2.31 4.62 -4.62 9.24 -7 14 C-8.27875 13.54625 -9.5575 13.0925 -10.875 12.625 C-19.98667559 9.61629335 -30.41692647 6.68976268 -39.625 10.5 C-40.40875 10.995 -41.1925 11.49 -42 12 C-42.41725678 15.37400578 -42.41725678 15.37400578 -42 19 C-37.69514623 22.68225095 -32.33870031 22.96796603 -26.9375 23.8125 C-17.27116334 25.49728992 -7.68641867 27.50014904 -0.8125 35.125 C2.67785758 40.66142926 2.78073238 46.7684305 1.609375 53.1171875 C-0.18412895 59.02655307 -3.86884601 62.70199891 -9 66 C-12.59397173 67.61802274 -16.22844826 68.86670659 -20 70 C-20.99 70.33 -21.98 70.66 -23 71 C-38.60925826 72.21044653 -52.21122445 70.71805357 -66 63 C-64.45454854 57.52067211 -61.84456788 52.88570819 -59 48 C-58.26136719 48.33773437 -57.52273438 48.67546875 -56.76171875 49.0234375 C-45.11471318 54.14397616 -34.13946038 57.07604796 -21.8203125 52.75390625 C-20.01443262 52.14200703 -20.01443262 52.14200703 -19 51 C-18.58282721 48.58462162 -18.58282721 48.58462162 -19 46 C-21.95000623 43.20303985 -24.5530835 42.45425123 -28.5078125 41.7890625 C-30.11269531 41.49902344 -30.11269531 41.49902344 -31.75 41.203125 C-33.97593356 40.82183082 -36.20248863 40.44414493 -38.4296875 40.0703125 C-46.63212814 38.57895966 -54.45816582 36.54183418 -60.5 30.5 C-64.47892766 23.86845391 -65.00317657 17.61871932 -64 10 C-61.22325877 2.87338277 -55.72418418 -1.66992784 -49 -5 C-33.8808698 -11.33563551 -13.52270255 -9.23501637 0 0 Z " fill="#052853" transform="translate(397,689)"/>
<path d="M0 0 C3.65224654 2.68190797 6.47944222 5.21916333 9 9 C9 9.99 9 10.98 9 12 C6.76953125 13.75390625 6.76953125 13.75390625 3.8125 15.5625 C2.84957031 16.16191406 1.88664062 16.76132812 0.89453125 17.37890625 C-1.69593975 18.82970985 -4.21758285 19.97757615 -7 21 C-7.50789063 20.51789062 -8.01578125 20.03578125 -8.5390625 19.5390625 C-13.33244158 15.1406435 -16.83213435 12.03749204 -23.60546875 11.9765625 C-30.30469071 12.32011234 -34.65536323 13.51866146 -39.43359375 18.4921875 C-44.0845324 23.78872386 -44.35572959 28.04991289 -44.2734375 34.85546875 C-43.80141739 40.28370005 -42.29685565 44.82320726 -38.28125 48.62890625 C-32.40811025 52.99643178 -27.11232855 53.80893545 -20 53 C-17.70824767 52.13254333 -15.70132407 51.1188142 -13.59375 49.875 C-12 49 -12 49 -10 49 C-9.731875 48.360625 -9.46375 47.72125 -9.1875 47.0625 C-8 45 -8 45 -5 44 C-2.48164732 45.56847344 -0.17081064 47.15634863 2.1875 48.9375 C2.84169922 49.41896484 3.49589844 49.90042969 4.16992188 50.39648438 C5.78676531 51.58846384 7.39428928 52.79306553 9 54 C6.43690066 61.54690361 0.19702189 65.74879054 -6.75 69.17578125 C-17.79681696 73.2224451 -31.53117028 74.27236406 -42.625 69.9375 C-52.69407398 64.92402802 -61.93756566 57.39022923 -65.9375 46.5625 C-68.90392826 34.60350304 -68.3575256 21.69143562 -62 11 C-56.0190992 1.73581537 -46.5412354 -3.59585859 -36 -6 C-35.05833984 -6.27650391 -35.05833984 -6.27650391 -34.09765625 -6.55859375 C-22.10293902 -9.08262177 -10.28659838 -6.21269803 0 0 Z " fill="#042752" transform="translate(471,688)"/>
<path d="M0 0 C1.39105656 4.39078528 0.03724149 7.3774467 -1.625 11.5 C-2.04604004 12.57338623 -2.04604004 12.57338623 -2.47558594 13.66845703 C-3.04603299 15.11594213 -3.62150526 16.56145756 -4.20214844 18.00488281 C-4.8762871 19.69064203 -5.52328004 21.3872189 -6.1640625 23.0859375 C-21.34738976 62.08196507 -51.30856191 92.77668366 -86 115 C-87.08023438 115.69996094 -88.16046875 116.39992188 -89.2734375 117.12109375 C-96.93904172 121.97597642 -104.83177591 126.1602104 -113.01757812 130.05175781 C-114.8497578 130.92813538 -116.6678024 131.8339012 -118.484375 132.7421875 C-127.58929751 137.05609183 -137.03075313 139.95700463 -146.6875 142.75 C-147.34654327 142.94077118 -148.00558655 143.13154236 -148.68460083 143.32809448 C-157.39445675 145.83274533 -166.14778073 148.05388042 -175 150 C-172.87364779 140.67707704 -172.87364779 140.67707704 -169.5 138.0625 C-166.66827125 137.20286806 -163.84172883 136.4299327 -160.98046875 135.6796875 C-155.14437513 134.09210409 -149.4872232 132.14733533 -143.8125 130.0625 C-142.87986328 129.72798828 -141.94722656 129.39347656 -140.98632812 129.04882812 C-136.68366421 127.47955014 -132.52824501 125.83481272 -128.44921875 123.74609375 C-125 122 -125 122 -123 122 C-123 121.34 -123 120.68 -123 120 C-123.99 119.67 -124.98 119.34 -126 119 C-124.74123047 118.54173828 -124.74123047 118.54173828 -123.45703125 118.07421875 C-108.37762354 112.33660917 -93.45956503 105.35515202 -80.80859375 95.234375 C-78.23280523 93.18520806 -75.60715305 91.29710936 -72.90454102 89.42358398 C-61.71044673 81.64807302 -51.43941276 72.83368799 -42 63 C-41.175 62.195625 -40.35 61.39125 -39.5 60.5625 C-32.31549331 53.19838064 -26.065657 45.30280045 -20 37 C-19.16855469 35.88625 -19.16855469 35.88625 -18.3203125 34.75 C-15.82214661 31.697068 -15.82214661 31.697068 -15 28 C-14.34 28 -13.68 28 -13 28 C-12.58548584 26.9332605 -12.58548584 26.9332605 -12.16259766 25.8449707 C-11.00098222 23.00240358 -9.72814382 20.2481133 -8.3984375 17.48046875 C-7.90859375 16.45888672 -7.41875 15.43730469 -6.9140625 14.38476562 C-6.40617188 13.32966797 -5.89828125 12.27457031 -5.375 11.1875 C-4.859375 10.11306641 -4.34375 9.03863281 -3.8125 7.93164062 C-2.5431041 5.28706583 -1.27222395 2.64321516 0 0 Z " fill="#51A7E6" transform="translate(690,346)"/>
<path d="M0 0 C0 4.00499992 -1.92940832 5.93013903 -4.3125 8.9375 C-4.98756592 9.79976196 -4.98756592 9.79976196 -5.67626953 10.67944336 C-10.48086705 16.73456393 -15.64627028 22.42819575 -21 28 C-21.48758789 28.50950195 -21.97517578 29.01900391 -22.47753906 29.54394531 C-62.30463723 70.92780302 -122.34052638 97.61575475 -179.93066406 99.07421875 C-182.99621914 99.09756795 -186.0594792 99.087851 -189.125 99.0625 C-190.7028125 99.05573242 -190.7028125 99.05573242 -192.3125 99.04882812 C-194.87506221 99.03718011 -197.43749877 99.02082553 -200 99 C-198.3828125 94.21972656 -198.3828125 94.21972656 -194.9375 92.2421875 C-190.69398744 90.68258726 -186.48001315 90.40967263 -182 90.125 C-116.99231463 84.71628296 -42.58900841 50.00450635 0 0 Z " fill="#3598DF" transform="translate(670,449)"/>
<path d="M0 0 C5.8471875 -0.12375 5.8471875 -0.12375 11.8125 -0.25 C13.01753174 -0.28641602 14.22256348 -0.32283203 15.46411133 -0.36035156 C23.20747462 -0.43867582 31.63573419 0.21118154 37.74975586 5.51904297 C42.74664502 11.35421728 42.52416122 16.59379612 42 24 C40.26769419 29.29315663 37.42126997 31.84195002 33 35 C29.4651137 36.25904734 25.98839715 36.1139842 22.265625 36.09765625 C20.51427246 36.09390991 20.51427246 36.09390991 18.72753906 36.09008789 C17.24995117 36.08098389 15.77236328 36.07187988 14.25 36.0625 C9.5475 36.041875 4.845 36.02125 0 36 C0 24.12 0 12.24 0 0 Z " fill="#042650" transform="translate(218,674)"/>
<path d="M0 0 C4.03174339 1.49351078 6.58338028 3.37507042 9 7 C9.66624845 11.07463524 9.94496094 15.24356703 7.94921875 18.953125 C6.18683214 21.0950226 4.49210321 22.7539484 2 24 C-8.84108101 25.04817082 -8.84108101 25.04817082 -13.15625 22.953125 C-15.99530388 20.58724677 -17.81650254 18.48108665 -18.2734375 14.79296875 C-18.54942724 7.71277047 -18.54942724 7.71277047 -15.6875 4 C-10.16950771 -0.10641287 -6.79122007 -0.85404737 0 0 Z " fill="#06264F" transform="translate(314,646)"/>
<path d="M0 0 C4.11605335 2.44172656 6.71225735 6.09940272 8.5 10.5 C8.5 11.82 8.5 13.14 8.5 14.5 C-4.04 14.5 -16.58 14.5 -29.5 14.5 C-28.35120662 7.60723972 -26.96472642 4.49275753 -21.5625 0.125 C-15.20105789 -3.13798108 -6.48883866 -2.75806425 0 0 Z " fill="#F7FAFC" transform="translate(617.5,699.5)"/>
<path d="M0 0 C0 3 0 3 -1.28515625 4.54296875 C-1.87167969 5.08566406 -2.45820312 5.62835938 -3.0625 6.1875 C-5.59978587 8.60853572 -7.94219044 11.05673459 -10.1875 13.75 C-36.45232012 43.97492603 -75.86955671 61.04896543 -113.25 72.625 C-114.07773926 72.88514893 -114.90547852 73.14529785 -115.75830078 73.41333008 C-116.52384277 73.64044678 -117.28938477 73.86756348 -118.078125 74.1015625 C-118.74231445 74.30088379 -119.40650391 74.50020508 -120.09082031 74.70556641 C-122.32260283 75.04975179 -123.86402844 74.67692588 -126 74 C-124.39511719 73.54173828 -124.39511719 73.54173828 -122.7578125 73.07421875 C-92.73542865 64.20807663 -63.3501526 50.40506588 -37.9375 32.0625 C-37.34517578 31.63630371 -36.75285156 31.21010742 -36.14257812 30.77099609 C-23.4027669 21.54049906 -10.87636295 11.394285 0 0 Z " fill="#54A7E5" transform="translate(680,487)"/>
<path d="M0 0 C25.08 0 50.16 0 76 0 C76 54.12 76 108.24 76 164 C75.67 164 75.34 164 75 164 C74.27933393 160.1115269 73.8746245 156.43302913 73.87301636 152.48016357 C73.86878662 150.87077156 73.86878662 150.87077156 73.86447144 149.22886658 C73.86750778 147.48507469 73.86750778 147.48507469 73.87060547 145.70605469 C73.86797699 143.85080925 73.86797699 143.85080925 73.86529541 141.95808411 C73.86165181 138.57041651 73.86250365 135.18281014 73.8656745 131.79514599 C73.86822123 128.22119761 73.86585311 124.64725171 73.86428833 121.07330322 C73.86246865 115.05098 73.86486275 109.02866902 73.86962891 103.00634766 C73.87502169 96.11416584 73.87334481 89.22201384 73.8678025 82.32983279 C73.86320581 76.36841799 73.86265374 70.40701199 73.86524117 64.44559598 C73.86677488 60.905811 73.86708112 57.36603981 73.86370468 53.8262558 C73.84912216 36.19369798 74.16635616 18.61386627 75 1 C74.23907956 1.16251975 73.47815912 1.3250395 72.69418049 1.49248409 C69.53551997 2.08749637 66.58855662 2.11967219 63.3737793 2.11352539 C62.40708061 2.11374443 62.40708061 2.11374443 61.42085266 2.1139679 C59.30527296 2.11327506 57.18978294 2.10551231 55.07421875 2.09765625 C53.60162911 2.09578983 52.12903885 2.09436699 50.65644836 2.09336853 C46.79147612 2.08956096 42.9265418 2.07974579 39.06158447 2.06866455 C35.11332716 2.0584125 31.16506368 2.05386279 27.21679688 2.04882812 C19.47784735 2.03812187 11.738929 2.02106669 4 2 C4.33 3.65 4.66 5.3 5 7 C3.29115995 5.37660195 1.62553283 3.70680947 0 2 C0 1.34 0 0.68 0 0 Z " fill="#339ADB" transform="translate(634,192)"/>
<path d="M0 0 C0.33 0 0.66 0 1 0 C1 63.69 1 127.38 1 193 C1.66 193 2.32 193 3 193 C2.34 194.65 1.68 196.3 1 198 C0.67 198 0.34 198 0 198 C0 132.66 0 67.32 0 0 Z " fill="#02275A" transform="translate(309,191)"/>
<path d="M0 0 C-1.47713068 4.33484756 -4.61592175 5.87439426 -8.4375 7.9375 C-9.06785156 8.28594971 -9.69820312 8.63439941 -10.34765625 8.9934082 C-35.66210774 22.81322832 -35.66210774 22.81322832 -43.41015625 21.6328125 C-44.19712891 21.31957031 -44.19712891 21.31957031 -45 21 C-39.25 18 -39.25 18 -37 18 C-37 17.34 -37 16.68 -37 16 C-37.99 15.67 -38.98 15.34 -40 15 C-36.57776454 13.73917641 -33.34114473 12.89689647 -29.75 12.375 C-24.37435678 11.36398453 -19.59581291 9.27362729 -14.625 7.0625 C-13.44695801 6.54018799 -13.44695801 6.54018799 -12.24511719 6.00732422 C-8.55297348 4.32336974 -3.80231812 0 0 0 Z " fill="#A5C5EC" transform="translate(604,450)"/>
<path d="M0 0 C0.99 0.99 1.98 1.98 3 3 C-7.55115703 7.72852806 -18.17691409 11.8930019 -29.1875 15.4375 C-30.76229126 15.94990234 -30.76229126 15.94990234 -32.36889648 16.47265625 C-37.93942939 18.22825057 -43.17703217 19.50487339 -49 20 C-45.75563533 17.83709022 -43.18602546 17.11590323 -39.4375 16.0625 C-25.94860942 12.08066465 -12.51321177 6.41348243 0 0 Z " fill="#3D9DE1" transform="translate(603,542)"/>
<path d="M0 0 C0.33 0 0.66 0 1 0 C1 21.45 1 42.9 1 65 C1.66 65 2.32 65 3 65 C2.34 66.65 1.68 68.3 1 70 C0.67 70 0.34 70 0 70 C0 46.9 0 23.8 0 0 Z " fill="#021E4A" transform="translate(309,319)"/>
<path d="M0 0 C0.66 0.33 1.32 0.66 2 1 C1.34 1.66 0.68 2.32 0 3 C7.26 3.33 14.52 3.66 22 4 C22 4.33 22 4.66 22 5 C20.80455566 5.03758423 20.80455566 5.03758423 19.58496094 5.07592773 C15.97314778 5.19198789 12.36158898 5.31466931 8.75 5.4375 C6.86861328 5.49647461 6.86861328 5.49647461 4.94921875 5.55664062 C3.74394531 5.59853516 2.53867187 5.64042969 1.296875 5.68359375 C0.18666992 5.72025146 -0.92353516 5.75690918 -2.06738281 5.79467773 C-4.53021849 5.96710904 -6.64482965 6.29595439 -9 7 C-9 6.34 -9 5.68 -9 5 C-7.54735962 4.1361871 -6.0876837 3.28419546 -4.625 2.4375 C-3.40683594 1.72400391 -3.40683594 1.72400391 -2.1640625 0.99609375 C-1.44992187 0.66738281 -0.73578125 0.33867188 0 0 Z " fill="#0D65B9" transform="translate(471,544)"/>
<path d="M0 0 C-0.99 0.66 -1.98 1.32 -3 2 C-3.495 2.495 -3.99 2.99 -4.5 3.5 C-7.26601877 6.26601877 -10.31252658 7.83080111 -14 9 C-16.3125 8.625 -16.3125 8.625 -18 8 C-12.25 5 -12.25 5 -10 5 C-10 4.34 -10 3.68 -10 3 C-10.99 2.67 -11.98 2.34 -13 2 C-8.49646738 0.24252386 -4.82360189 -0.19294408 0 0 Z " fill="#97C7F0" transform="translate(577,463)"/>
<path d="M0 0 C0.66 0.33 1.32 0.66 2 1 C0.98679687 1.99580078 0.98679687 1.99580078 -0.046875 3.01171875 C-1.38492187 4.33623047 -1.38492187 4.33623047 -2.75 5.6875 C-3.63171875 6.55761719 -4.5134375 7.42773438 -5.421875 8.32421875 C-7.78805298 10.78002468 -9.91892556 13.30141048 -12 16 C-12.66 15.67 -13.32 15.34 -14 15 C-12.42215211 13.05780174 -10.83808185 11.12130191 -9.25 9.1875 C-8.8065625 8.64029297 -8.363125 8.09308594 -7.90625 7.52929688 C-5.49340656 4.60195005 -3.16476761 2.1073803 0 0 Z " fill="#18355F" transform="translate(341,375)"/>
<path d="M0 0 C0 4.2650016 -2.44473414 6.50032379 -5 9.6875 C-5.71542969 10.59725586 -5.71542969 10.59725586 -6.4453125 11.52539062 C-7.62376394 13.02202396 -8.81105188 14.51169173 -10 16 C-10 10.75107562 -7.31441814 8.02226505 -3.875 4.25 C-3.15054688 3.45078125 -2.42609375 2.6515625 -1.6796875 1.828125 C-0.84824219 0.92320312 -0.84824219 0.92320312 0 0 Z " fill="#6AADE3" transform="translate(670,449)"/>
<path d="M0 0 C0.33 0.66 0.66 1.32 1 2 C-1.66666667 4.66666667 -4.33333333 7.33333333 -7 10 C-7.66 9.67 -8.32 9.34 -9 9 C-6.03 6.03 -3.06 3.06 0 0 Z " fill="#3998DB" transform="translate(631,357)"/>
<path d="M0 0 C1.67542976 0.28604898 3.34385343 0.61781233 5 1 C4.67 1.99 4.34 2.98 4 4 C2.02 4.33 0.04 4.66 -2 5 C-1.125 1.125 -1.125 1.125 0 0 Z " fill="#5CAFEA" transform="translate(601,447)"/>
<path d="M0 0 C1.10191901 4.40767604 0.58706842 5.8922935 -1 10 C-1.66 9.67 -2.32 9.34 -3 9 C-2.01 6.03 -1.02 3.06 0 0 Z " fill="#4BA2E3" transform="translate(690,346)"/>
<path d="M0 0 C2.91517292 1.07401108 4.77810176 1.77810176 7 4 C5.824375 3.9690625 5.824375 3.9690625 4.625 3.9375 C2.01885039 3.81315937 2.01885039 3.81315937 0 5 C0 3.35 0 1.7 0 0 Z " fill="#3597DC" transform="translate(756,737)"/>
<path d="M0 0 C1.65 0 3.3 0 5 0 C4.67 0.99 4.34 1.98 4 3 C5.32 3.66 6.64 4.32 8 5 C5 5 5 5 2.3125 2.5 C1.549375 1.675 0.78625 0.85 0 0 Z " fill="#104599" transform="translate(414,562)"/>
</svg>
